<svg width="13" height="13" viewBox="0 0 13 13" fill="none" xmlns="http://www.w3.org/2000/svg">
<path d="M6.33425 0.011375L6.5 0C6.79451 1.24197e-05 7.07906 0.106669 7.30101 0.300246C7.52297 0.493823 7.66732 0.761225 7.70738 1.053L7.71875 1.21875V5.27962L11.7812 5.28125C12.0758 5.28126 12.3603 5.38792 12.5823 5.5815C12.8042 5.77507 12.9486 6.04247 12.9886 6.33425L13 6.5C13 6.79451 12.8933 7.07906 12.6998 7.30101C12.5062 7.52297 12.2388 7.66732 11.947 7.70738L11.7812 7.71875L7.71875 7.71712V11.7812C7.71874 12.0758 7.61208 12.3603 7.4185 12.5823C7.22493 12.8042 6.95753 12.9486 6.66575 12.9886L6.5 13C6.20549 13 5.92094 12.8933 5.69899 12.6998C5.47703 12.5062 5.33268 12.2388 5.29262 11.947L5.28125 11.7812V7.71712L1.21875 7.71875C0.924239 7.71874 0.639694 7.61208 0.417738 7.4185C0.195781 7.22493 0.0514285 6.95753 0.011375 6.66575L0 6.5C1.24197e-05 6.20549 0.106669 5.92094 0.300246 5.69899C0.493823 5.47703 0.761225 5.33268 1.053 5.29262L1.21875 5.28125L5.28125 5.27962V1.21875C5.28126 0.924239 5.38792 0.639694 5.5815 0.417738C5.77507 0.195781 6.04247 0.0514285 6.33425 0.011375L6.5 0L6.33425 0.011375Z" fill="white"/>
</svg>
